<svg xmlns="http://www.w3.org/2000/svg" version="1.1" class='lower_schema' width="680px" height="120px" style="shape-rendering:geometricPrecision;text-rendering:geometricPrecision;image-rendering:optimizeQuality;fill-rule:evenodd;clip-rule:evenodd" xmlns:xlink="http://www.w3.org/1999/xlink">

<!-- lower -->


  <!-- start lower rigth -->


  <g fill='red' id='crown_31' class='crown' transform="translate(0,-150)">
    <path d="M 360.5,193.5 C 359.833,193.5 359.5,193.833 359.5,194.5C 358.833,194.5 358.5,194.833 358.5,195.5C 356.833,195.5 355.167,195.5 353.5,195.5C 353.5,194.833 353.167,194.5 352.5,194.5C 348.534,187.05 347.034,179.05 348,170.5C 352.518,166.836 357.351,166.502 362.5,169.5C 363.664,175.807 363.831,182.141 363,188.5C 362.153,190.193 361.32,191.86 360.5,193.5 Z" />
  </g>
  <g transform="translate(0,-150)" fill='red' id='root_31' class='root'>
    <path d="M 360.5,193.5 C 361.756,193.461 362.756,193.961 363.5,195C 361.42,207.37 360.087,219.87 359.5,232.5C 356.744,233.633 354.911,232.633 354,229.5C 351.914,219.634 350.914,209.634 351,199.5C 348.662,196.86 349.162,195.193 352.5,194.5C 353.167,194.5 353.5,194.833 353.5,195.5C 355.167,198.167 356.833,198.167 358.5,195.5C 359.167,195.5 359.5,195.167 359.5,194.5C 360.167,194.5 360.5,194.167 360.5,193.5 Z M 353.5,195.5 C 355.167,195.5 356.833,195.5 358.5,195.5C 356.833,198.167 355.167,198.167 353.5,195.5 Z" />
  </g>


  <g transform="translate(0,-150)" fill='red' id='crown_32' class='crown'>
    <path d="M 382.5,194.5 C 378.422,186.706 376.922,178.373 378,169.5C 383.186,166.872 388.353,167.038 393.5,170C 394.191,171.067 394.691,172.234 395,173.5C 395.154,178.569 394.487,183.569 393,188.5C 391.465,194.238 387.965,196.238 382.5,194.5 Z" />
  </g>
  <g transform="translate(0,-150)" fill="red" id='root_32' class='root'>
    <path d="M 382.5,194.5 C 382.611,195.117 382.944,195.617 383.5,196C 386.332,196.212 388.998,196.379 391.5,196.5C 390.855,202.255 390.188,208.255 389.5,214.5C 390.782,222.808 391.782,231.141 392.5,239.5C 390.278,239.822 388.444,239.155 387,237.5C 385.059,233.952 383.393,230.286 382,226.5C 380.646,215.873 379.812,205.206 379.5,194.5C 380.5,194.5 381.5,194.5 382.5,194.5 Z" />
  </g>


  <g transform="translate(0,-150)" fill='blue' id='crown_33' class='crown'>
    <path d="M 427.5,199.5 C 425.167,200.833 422.833,200.833 420.5,199.5C 413.852,187.71 411.685,175.376 414,162.5C 418.827,158.558 423.66,158.725 428.5,163C 431.783,165.567 433.783,168.9 434.5,173C 433.26,179.826 432.094,186.659 431,193.5C 429.579,195.405 428.412,197.405 427.5,199.5 Z" />
  </g>
  <g transform="translate(0,-150)" fill="blue" id='root_33' class='root'>
    <path d="M 420.5,199.5 C 422.833,203.5 425.167,203.5 427.5,199.5C 428.5,198.167 429.5,198.167 430.5,199.5C 429.531,211.152 429.365,222.819 430,234.5C 430.82,241.937 432.654,249.104 435.5,256C 435.266,257.732 434.266,258.566 432.5,258.5C 429.559,257.394 427.392,255.394 426,252.5C 423.398,246.361 421.398,240.028 420,233.5C 418.231,221.465 416.398,209.465 414.5,197.5C 414.808,196.692 415.308,196.025 416,195.5C 417.371,197.041 418.871,198.375 420.5,199.5 Z M 420.5,199.5 C 422.833,200.833 425.167,200.833 427.5,199.5C 425.167,203.5 422.833,203.5 420.5,199.5 Z" />
  </g>


  <g transform="translate(0,-150)" fill='blue' id='crown_34' class='crown'>
    <path d="M 460.5,193.5 C 452.104,187.252 449.937,179.252 454,169.5C 456.548,165.64 460.048,164.14 464.5,165C 467,167.167 469.5,169.333 472,171.5C 472.835,178.173 471.668,184.507 468.5,190.5C 466.255,192.623 463.588,193.623 460.5,193.5 Z" />
  </g>
  <g transform="translate(0,-150)" fill='blue' id='root_34' class='root'>
    <path d="M 460.5,193.5 C 462.265,194.461 464.265,194.795 466.5,194.5C 465.35,206.003 465.35,217.503 466.5,229C 467.244,233.934 465.411,235.434 461,233.5C 460.333,232.167 459.667,230.833 459,229.5C 456.464,217.62 455.464,205.62 456,193.5C 457.299,193.034 458.799,193.034 460.5,193.5 Z" />
  </g>


  <g transform="translate(0,-150)" fill='blue' id='crown_35' class='crown'>
    <path d="M 501.5,164.5 C 508.863,163.867 512.863,167.2 513.5,174.5C 513.715,182.433 510.215,187.767 503,190.5C 495.477,185.682 492.81,179.015 495,170.5C 497.063,168.266 499.229,166.266 501.5,164.5 Z" />
  </g>
  <g transform="translate(0,-150)" fill='blue' id='root_35' class='root'>
    <path d="M 495.5,187.5 C 497.911,189.219 500.577,190.552 503.5,191.5C 505.135,190.954 506.801,190.62 508.5,190.5C 507.874,202.843 507.041,215.176 506,227.5C 504.609,229.715 502.943,229.715 501,227.5C 498.139,221.162 496.473,214.496 496,207.5C 495.5,200.842 495.334,194.175 495.5,187.5 Z" />
  </g>


  <g transform="translate(0,-150)" fill='green' id='crown_36' class='crown'>
    <path d="M 560.5,191.5 C 559.209,191.263 558.209,191.596 557.5,192.5C 556.508,192.328 555.842,192.662 555.5,193.5C 552.833,193.5 550.167,193.5 547.5,193.5C 543.876,192.258 540.376,190.591 537,188.5C 535.675,184.572 535.342,180.572 536,176.5C 536.5,174.667 537.667,173.5 539.5,173C 545.517,173.36 551.517,173.193 557.5,172.5C 560.5,173 563.5,173.5 566.5,174C 567.629,178.079 567.796,182.245 567,186.5C 565.728,189.492 563.562,191.159 560.5,191.5 Z" />
  </g>
  <g transform="translate(0,-150)" fill='green' id='root_36' class='root'>
    <path d="M 560.5,191.5 C 563.483,193.292 564.149,195.792 562.5,199C 563.739,203.713 565.573,208.213 568,212.5C 568.524,218.85 568.358,225.184 567.5,231.5C 565.61,231.703 564.11,231.037 563,229.5C 562,225.5 561,221.5 560,217.5C 556.144,212.837 552.978,207.837 550.5,202.5C 546.803,205.399 545.136,209.233 545.5,214C 546.61,220.346 548.11,226.513 550,232.5C 545.736,233.529 542.736,231.862 541,227.5C 539.601,224.637 538.601,221.637 538,218.5C 537.333,210.167 537.333,201.833 538,193.5C 541.112,192.427 544.279,192.427 547.5,193.5C 550.167,196.167 552.833,196.167 555.5,193.5C 556.492,193.672 557.158,193.338 557.5,192.5C 558.791,192.737 559.791,192.404 560.5,191.5 Z M 547.5,193.5 C 550.167,193.5 552.833,193.5 555.5,193.5C 552.833,196.167 550.167,196.167 547.5,193.5 Z" />
  </g>


  <g transform="translate(0,-150)" fill='green' id='crown_37' class='crown'>
    <path d="M 596.5,175.5 C 600.198,175.194 603.698,175.861 607,177.5C 611.968,174.328 616.301,174.995 620,179.5C 620.81,184.257 620.476,188.924 619,193.5C 617.938,194.097 616.772,194.43 615.5,194.5C 609.187,193.793 602.853,193.293 596.5,193C 594.121,189.744 592.121,186.244 590.5,182.5C 591.833,179.507 593.833,177.173 596.5,175.5 Z" />
  </g>
  <g transform="translate(0,-150)" fill="green" id='root_37' class='root'>
    <path d="M 598.5,194.5 C 605.083,194.812 611.583,195.478 618,196.5C 621.929,203.265 623.429,210.432 622.5,218C 623.41,222.137 624.077,226.304 624.5,230.5C 621.348,231.041 618.848,230.041 617,227.5C 615.242,220.861 613.575,214.195 612,207.5C 611.653,205.82 610.653,204.82 609,204.5C 607.139,205.609 606.305,207.275 606.5,209.5C 608.46,215.085 610.127,220.752 611.5,226.5C 611.918,229.271 610.918,231.271 608.5,232.5C 604.763,226.7 601.263,220.7 598,214.5C 597.476,207.628 597.642,200.961 598.5,194.5 Z" />
  </g>

  <g transform="translate(0,-150)" fill='green' id='crown_38' class='crown'>
    <path d="M 646.5,177.5 C 649.518,177.335 652.518,177.502 655.5,178C 656.333,178.833 657.167,179.667 658,180.5C 665.21,176.543 670.044,178.376 672.5,186C 671.733,189.634 670.566,193.134 669,196.5C 661.295,199.46 653.795,198.96 646.5,195C 642.747,188.975 642.747,183.141 646.5,177.5 Z" />
  </g>
  <g transform="translate(0,-150)" fill="green" id='root_38' class='root'>
    <path d="M 648.5,197.5 C 651.832,198.5 655.166,199.5 658.5,200.5C 661.812,199.621 665.145,199.454 668.5,200C 666.84,202.633 666.34,205.466 667,208.5C 668.498,213.66 670.664,218.493 673.5,223C 673.138,224.885 671.971,225.719 670,225.5C 668.175,225.057 666.342,224.723 664.5,224.5C 664.824,227.68 663.49,228.847 660.5,228C 651.011,219.875 647.011,209.708 648.5,197.5 Z" />
  </g>



  <!-- end lower rigth -->


  <!-- start lower left -->





  <g transform="translate(0,-150)" fill='red' id='crown_41' class='crown'>
    <path d="M 322.5,195.5 C 318.124,188.147 316.29,180.147 317,171.5C 321.619,167.968 326.452,167.635 331.5,170.5C 331.833,172 332.167,173.5 332.5,175C 331.917,180.492 331.417,185.992 331,191.5C 329.323,195.051 326.49,196.384 322.5,195.5 Z" />
  </g>
  <g transform="translate(0,-150)" fill="red" id='root_41' class='root'>
    <path d="M 322.5,195.5 C 322.866,196.695 323.699,197.361 325,197.5C 326.763,197.025 328.43,196.358 330,195.5C 330.249,206.926 329.249,218.259 327,229.5C 322.679,235.391 320.179,234.724 319.5,227.5C 320.17,216.852 320.17,206.186 319.5,195.5C 320.5,195.5 321.5,195.5 322.5,195.5 Z" />
  </g>

  <g transform="translate(0,-150)" fill='red' id='crown_42' class='crown'>
    <path d="M 288.5,192.5 C 284.795,185.67 283.295,178.336 284,170.5C 289.347,168.227 294.847,167.561 300.5,168.5C 301.127,176.221 300.294,183.888 298,191.5C 295.172,195.032 292.005,195.366 288.5,192.5 Z" />
  </g>
  <g transform="translate(0,-150)" fill="red" id='root_42' class='root'>
    <path d="M 288.5,195.5 C 291.448,195.223 294.281,195.556 297,196.5C 298.234,208.703 297.234,220.703 294,232.5C 292,236.5 290,236.5 288,232.5C 287.188,220.091 287.355,207.758 288.5,195.5 Z" />
  </g>


  <g transform="translate(0,-150)" fill='blue' id='crown_43' class='crown'>
    <path d="M 258.5,197.5 C 256.5,197.5 254.5,197.5 252.5,197.5C 244.899,188.967 242.399,178.967 245,167.5C 249.294,164.87 253.294,161.87 257,158.5C 262.433,159.765 265.6,163.098 266.5,168.5C 265.95,175.543 265.116,182.543 264,189.5C 262.727,192.597 260.893,195.264 258.5,197.5 Z" />
  </g>
  <g transform="translate(0,-150)" fill="blue" id='root_43' class='root'>
    <path d="M 252.5,197.5 C 254.5,200.167 256.5,200.167 258.5,197.5C 260.044,197.297 261.378,196.63 262.5,195.5C 264.097,215.92 260.93,235.587 253,254.5C 249.747,257.494 247.247,256.994 245.5,253C 249.208,236.341 250.208,219.508 248.5,202.5C 248.833,200.5 249.167,198.5 249.5,196.5C 250.417,197.127 251.417,197.461 252.5,197.5 Z M 252.5,197.5 C 254.5,197.5 256.5,197.5 258.5,197.5C 256.5,200.167 254.5,200.167 252.5,197.5 Z" />
  </g>


  <g transform="translate(0,-150)" fill='blue' id='crown_44' class='crown'>
    <path d="M 218.5,189.5 C 217.508,189.328 216.842,189.662 216.5,190.5C 207.799,189.496 203.466,184.496 203.5,175.5C 203.621,174.106 203.954,172.772 204.5,171.5C 207.354,168.812 210.354,166.312 213.5,164C 220.399,163.773 224.733,166.94 226.5,173.5C 225.307,179.732 222.64,185.065 218.5,189.5 Z" />
  </g>
  <g transform="translate(0,-150)" fill='blue' id='root_44' class='root'>
    <path d="M 216.5,190.5 C 217.492,190.672 218.158,190.338 218.5,189.5C 219.5,189.5 220.5,189.5 221.5,189.5C 220.888,200.837 220.055,212.17 219,223.5C 218.038,226.456 216.372,228.79 214,230.5C 213.228,230.355 212.561,230.022 212,229.5C 210.895,217.779 209.395,206.112 207.5,194.5C 207.833,192.833 208.167,191.167 208.5,189.5C 211.148,191.442 213.815,191.776 216.5,190.5 Z" />
  </g>


  <g transform="translate(0,-150)" fill='blue' id='crown_45' class='crown'>
    <path d="M 171.5,164.5 C 182.9,164.399 186.733,169.732 183,180.5C 181.776,190.422 176.609,193.588 167.5,190C 163.831,184.378 162.664,178.211 164,171.5C 166.396,168.933 168.896,166.6 171.5,164.5 Z" />
  </g>
  <g transform="translate(0,-150)" fill='blue' id='root_45' class='root'>
    <path d="M 178.5,191.5 C 179.147,192.274 179.48,193.274 179.5,194.5C 178.135,205.791 177.302,217.124 177,228.5C 176.035,233.473 173.702,234.473 170,231.5C 168.834,218.519 168.001,205.519 167.5,192.5C 169.591,192.318 171.591,192.652 173.5,193.5C 175.336,192.972 177.003,192.306 178.5,191.5 Z" />
  </g>


  <g transform="translate(0,-150)" fill='green' id='tooth_46' class='tooth'>
    <path d="M 118.5,172.5 C 120.916,174.036 123.583,175.036 126.5,175.5C 130.402,174.028 134.402,173.528 138.5,174C 139.416,174.374 140.25,174.874 141,175.5C 142.122,182.43 141.288,189.096 138.5,195.5C 133.621,197.209 128.621,198.709 123.5,200C 128.456,200.006 133.289,199.172 138,197.5C 139.103,208.401 138.436,219.401 136,230.5C 134.765,235.29 131.932,237.29 127.5,236.5C 127.167,235.5 126.833,234.5 126.5,233.5C 127.604,229.356 128.604,225.189 129.5,221C 129.449,216.659 127.783,213.159 124.5,210.5C 118.29,218.302 115.29,227.302 115.5,237.5C 113.533,237.739 111.699,237.406 110,236.5C 109.042,233.925 108.542,231.259 108.5,228.5C 110.85,218.61 112.683,208.61 114,198.5C 115.399,197.773 116.899,197.273 118.5,197C 111.854,195.341 108.521,191.007 108.5,184C 108.384,181.456 109.217,179.289 111,177.5C 113.824,176.182 116.324,174.515 118.5,172.5 Z" />
  </g>

  <g transform="translate(0,-150)" fill='green' id='crown_47' class='crown'>
    <path d="M 61.5,175.5 C 64.462,176.061 67.2953,177.061 70,178.5C 73.8968,174.986 78.0634,174.653 82.5,177.5C 85.0139,182.801 84.8473,188.134 82,193.5C 74.7033,196.488 67.2033,196.988 59.5,195C 52.2093,187.312 52.876,180.812 61.5,175.5 Z" />
  </g>
  <g transform="translate(0,-150)" fill="green" id='root_47' class='root'>
    <path d="M 59.5,196.5 C 67.0575,197.272 74.5575,197.606 82,197.5C 84.9285,210.253 82.0952,221.419 73.5,231C 72.2161,231.684 71.0495,231.517 70,230.5C 69.5155,223.278 71.0155,216.445 74.5,210C 73.8448,208.513 72.8448,207.347 71.5,206.5C 67.7955,208.9 65.2955,212.233 64,216.5C 62.6722,221.477 61.5056,226.477 60.5,231.5C 59.1804,233.27 57.6804,233.603 56,232.5C 54.5236,227.924 54.1902,223.257 55,218.5C 56.1831,211.101 57.6831,203.768 59.5,196.5 Z" />
  </g>

  <g transform="translate(0,-150)" fill='green' id='crown_48' class='crown'>
    <path d="M 14.5,177.5 C 17.0488,177.387 19.3821,178.054 21.5,179.5C 33.9914,175.158 37.8248,179.158 33,191.5C 27.0865,196.58 20.2532,198.413 12.5,197C 8.60499,192.344 7.43833,187.177 9,181.5C 10.8121,180.023 12.6455,178.69 14.5,177.5 Z" />
  </g>
  <g transform="translate(0,-150)" fill="green" id='root_48' class='root'>
    <path d="M 29.5,195.5 C 29.7235,204.841 27.5568,213.841 23,222.5C 21.2609,224.741 19.0942,226.408 16.5,227.5C 15.5853,226.672 14.9186,225.672 14.5,224.5C 15.3256,223.549 15.4922,222.549 15,221.5C 13.5,223 12,224.5 10.5,226C 8.5273,226.495 6.5273,226.662 4.5,226.5C 6.35918,221.777 8.52585,217.11 11,212.5C 12.5566,208.195 12.8899,203.862 12,199.5C 15.7454,198.703 19.5787,198.203 23.5,198C 25.7226,197.434 27.7226,196.6 29.5,195.5 Z" />
  </g>



  <!-- end lower left -->





</svg>
