<svg xmlns="http://www.w3.org/2000/svg" version="1.1" class='tooth_schema' width="680px" height="260px" style="shape-rendering:geometricPrecision;text-rendering:geometricPrecision;image-rendering:optimizeQuality;fill-rule:evenodd;clip-rule:evenodd" xmlns:xlink="http://www.w3.org/1999/xlink">
  <!-- start upper left -->
  <g fill='red' id='crown_11' class='crown'>
    <path d="M 329.5,74.5 C 333.95,83.4345 335.117,92.7678 333,102.5C 303.411,111.029 296.744,102.029 313,75.5C 318.153,70.5058 323.653,70.1724 329.5,74.5 Z" />
  </g>
  <g fill='red' id='root_11' class='root'>
    <path d="M 316.5,24.5 C 320.251,24.0824 322.418,25.749 323,29.5C 327.58,43.4881 330.414,57.8214 331.5,72.5C 328.056,71.4089 324.556,70.4089 321,69.5C 317.38,70.1413 314.38,71.808 312,74.5C 311.878,62.5553 313.044,50.722 315.5,39C 313.93,33.9559 314.264,29.1225 316.5,24.5 Z" />
  </g>
  <g fill='blue' id='crown_12' class='crown'>
    <path d="M 276.5,70.5 C 279.528,70.9649 282.362,71.9649 285,73.5C 287.145,80.1686 288.645,87.0019 289.5,94C 289.423,100.578 286.089,104.078 279.5,104.5C 276.041,104.109 272.707,103.276 269.5,102C 267.73,100.033 266.73,97.6998 266.5,95C 268.457,87.4591 270.624,79.9591 273,72.5C 274.302,71.9152 275.469,71.2485 276.5,70.5 Z" />
  </g>
  <g fill='blue' id='root_12' class='root'>
    <path d="M 272.5,23.5 C 277.197,25.4883 280.03,29.1549 281,34.5C 283.49,46.794 285.656,59.1273 287.5,71.5C 284.367,70.7349 281.2,70.0683 278,69.5C 274.711,71.54 272.545,70.7067 271.5,67C 272.925,53.9638 272.592,40.9638 270.5,28C 270.759,26.2134 271.425,24.7134 272.5,23.5 Z" />
  </g>
  <g fill='blue' id='crown_13' class='crown'>
    <path d="M 232.5,68.5 C 236.494,67.608 240.327,67.2747 244,67.5C 248.542,77.6798 250.208,88.3465 249,99.5C 248.484,102.034 247.317,104.2 245.5,106C 237.636,108.352 231.47,106.185 227,99.5C 226.333,92.5 226.333,85.5 227,78.5C 228.577,75.0108 230.411,71.6774 232.5,68.5 Z" />
  </g>
  <g fill='blue' id='root_13' class='root'>
    <path d="M 245.5,66.5 C 243.539,66.7314 241.539,66.0648 239.5,64.5C 236.651,65.0997 234.318,66.4331 232.5,68.5C 231.417,68.5394 230.417,68.8728 229.5,69.5C 229.167,67.3333 228.833,65.1667 228.5,63C 229.955,50.1978 230.955,37.3645 231.5,24.5C 231.629,16.8763 230.963,9.37634 229.5,2C 230.944,1.21948 232.277,1.38615 233.5,2.5C 237.79,10.4122 240.957,18.7455 243,27.5C 244.686,40.4443 245.52,53.4443 245.5,66.5 Z" />
  </g>
  <g fill='blue' id='crown_14' class='crown'>
    <path d="M 194.5,75.5 C 198.182,75.5907 201.349,76.924 204,79.5C 206.489,83.3114 207.989,87.4781 208.5,92C 207.509,98.1834 203.843,101.683 197.5,102.5C 186.775,98.8421 183.942,91.8421 189,81.5C 190.36,78.9774 192.193,76.9774 194.5,75.5 Z" />
  </g>
   <g fill='blue' id='root_14' class='root'>
    <path d="M 205.5,76.5 C 202.538,75.9391 199.705,74.9391 197,73.5C 194.681,74.8713 192.181,75.5379 189.5,75.5C 191.498,60.8446 193.498,46.178 195.5,31.5C 196.478,31.9767 197.311,32.6433 198,33.5C 203.297,47.4682 205.797,61.8016 205.5,76.5 Z" />
  </g>
   <g fill='blue' id='crown_15' class='crown'>
    <path d="M 153.5,70.5 C 166.036,70.5528 171.203,76.8861 169,89.5C 165.898,96.2978 160.732,99.1312 153.5,98C 148.268,95.3674 146.435,91.2008 148,85.5C 148.774,80.0409 150.608,75.0409 153.5,70.5 Z" />
  </g>
  <g fill='blue' id='root_15' class='root'>
    <path d="M 153.5,70.5 C 152.624,70.6309 151.957,70.2975 151.5,69.5C 152.962,55.3161 152.629,41.1494 150.5,27C 151.099,21.4031 153.599,20.2365 158,23.5C 163.357,38.6695 166.19,54.3362 166.5,70.5C 163.307,69.9888 160.141,69.3222 157,68.5C 155.319,68.6083 154.152,69.2749 153.5,70.5 Z" />
  </g>
  <g fill='green' id='crown_16' class='crown'>
    <path d="M 111.5,68.5 C 116.45,70.4219 121.283,72.4219 126,74.5C 128.129,79.662 128.796,84.9953 128,90.5C 121.788,97.1003 115.455,97.1003 109,90.5C 102.748,96.0326 97.0815,95.3659 92,88.5C 90.4312,81.1594 92.5979,75.3261 98.5,71C 102.167,70.6667 105.833,70.3333 109.5,70C 110.416,69.7216 111.082,69.2216 111.5,68.5 Z" />
  </g>
  <g fill='green' id='root_16' class='root'>
    <path d="M 109.5,25.5 C 111.903,25.393 113.736,26.393 115,28.5C 118.203,46.8968 120.036,46.8968 120.5,28.5C 121.822,28.33 122.989,28.6634 124,29.5C 124.667,32.1667 125.333,34.8333 126,37.5C 125.736,48.2474 125.069,58.9141 124,69.5C 122.274,70.5762 120.441,70.7429 118.5,70C 116.63,68.6338 114.63,67.4672 112.5,66.5C 110.5,67.5 108.5,68.5 106.5,69.5C 104.253,68.6258 101.92,68.2924 99.5,68.5C 99.6658,63.8215 99.4992,59.1548 99,54.5C 97.3127,49.6085 96.1461,44.6085 95.5,39.5C 95.542,36.7414 96.042,34.0747 97,31.5C 98.1096,29.9632 99.6096,29.2965 101.5,29.5C 101.335,33.1817 101.501,36.8484 102,40.5C 102.782,43.0758 104.282,45.0758 106.5,46.5C 107.086,46.2907 107.586,45.9574 108,45.5C 108.5,43 109,40.5 109.5,38C 108.265,33.7769 108.265,29.6102 109.5,25.5 Z" />
  </g>
  <g fill='green' id='crown_17' class='crown'>
    <path d="M 60.5,68.5 C 65.2029,68.1201 69.5363,69.1201 73.5,71.5C 77.6074,77.0628 78.2741,82.8961 75.5,89C 71.7685,91.6463 67.7685,92.1463 63.5,90.5C 61.0838,90.8747 58.7504,91.5413 56.5,92.5C 46.0822,88.0895 43.5822,80.7561 49,70.5C 52.9352,69.8622 56.7685,69.1955 60.5,68.5 Z" />
  </g>
  <g fill='green' id='root_17' class='root'>
    <path d="M 66.5,29.5 C 68.1439,29.2865 69.6439,29.6198 71,30.5C 75.6718,37.5198 77.3385,45.1865 76,53.5C 74.5251,58.0633 73.6917,62.7299 73.5,67.5C 66.6104,66.7304 59.7771,66.3971 53,66.5C 52.5022,64.4731 52.6689,62.4731 53.5,60.5C 49.8335,51.6994 49.0001,42.6994 51,33.5C 51.7096,32.0267 52.8762,31.3601 54.5,31.5C 54.2338,35.5705 54.5672,39.5705 55.5,43.5C 55.8333,43.8333 56.1667,44.1667 56.5,44.5C 58.3931,29.1144 61.2264,28.7811 65,43.5C 67.8257,47.5013 69.3257,46.8346 69.5,41.5C 68.4752,37.4683 67.4752,33.4683 66.5,29.5 Z" />
  </g>
  <g fill='green' id='tooth_18' class='tooth'>
    <path d="M 29.5,71.5 C 26.8377,72.6393 24.171,72.8059 21.5,72C 25.4459,72.8785 29.2792,74.0452 33,75.5C 38.1867,88.1466 34.3534,92.1466 21.5,87.5C 16.8197,91.7872 12.6531,91.4539 9,86.5C 8.26166,82.5983 8.92833,78.9316 11,75.5C 14.2641,74.8201 17.4308,73.6535 20.5,72C 18.6199,72.5098 16.7866,72.3431 15,71.5C 15.2779,67.8606 15.2779,64.1939 15,60.5C 13.2571,56.0162 11.2571,51.6829 9,47.5C 8.33333,44.5 8.33333,41.5 9,38.5C 9.71752,37.5494 10.5509,37.3828 11.5,38C 13.2792,41.0562 14.9458,44.2229 16.5,47.5C 17.325,48.3857 18.325,48.719 19.5,48.5C 19.219,43.4351 19.5524,38.4351 20.5,33.5C 23.2479,32.3561 25.0813,33.3561 26,36.5C 29.1439,47.9396 30.3106,59.6063 29.5,71.5 Z" />
  </g>

  <!-- end upper left -->


  <!-- start upper rigth -->



  <g fill='red' id='crown_21' class='crown'>
    <path d="M 358.5,72.5 C 363.589,71.4285 367.422,73.0952 370,77.5C 373.894,84.1805 376.394,91.3472 377.5,99C 377.385,100.895 376.718,102.562 375.5,104C 366.589,106.109 357.756,105.942 349,103.5C 347.484,94.0257 348.817,85.0257 353,76.5C 354.812,75.0229 356.645,73.6896 358.5,72.5 Z" />
  </g>
  <g fill='red' id='root_21' class='root'>
    <path d="M 363.5,25.5 C 364.822,25.33 365.989,25.6634 367,26.5C 366.916,42.1038 368.416,57.6038 371.5,73C 371.167,73.5 370.833,74 370.5,74.5C 367.987,72.4935 365.154,71.1602 362,70.5C 358.444,71.4089 354.944,72.4089 351.5,73.5C 351.463,59.4602 353.629,45.7936 358,32.5C 359.666,30.0043 361.5,27.671 363.5,25.5 Z" />
  </g>
  <g fill='blue' id='crown_22' class='crown'>
    <path d="M 400.5,70.5 C 403.854,71.261 406.687,72.9277 409,75.5C 410.109,82.5437 411.942,89.377 414.5,96C 414.833,98.6667 413.833,100.667 411.5,102C 405.415,102.861 399.415,102.527 393.5,101C 392.874,100.25 392.374,99.4162 392,98.5C 391.23,89.7092 392.73,81.3759 396.5,73.5C 397.901,72.4793 399.235,71.4793 400.5,70.5 Z" />
  </g>
  <g fill='blue' id='root_22' class='root'>
    <path d="M 406.5,23.5 C 409.261,22.9147 410.927,23.9147 411.5,26.5C 410.946,28.6096 410.112,30.6096 409,32.5C 408.5,45.1623 408.333,57.8289 408.5,70.5C 406.152,70.3305 403.818,69.9971 401.5,69.5C 399.407,69.4858 397.574,70.1524 396,71.5C 396.356,58.692 398.022,46.0253 401,33.5C 402.07,29.6891 403.903,26.3557 406.5,23.5 Z" />
  </g>
  <g fill='blue' id='crown_23' class='crown'>
    <path d="M 435.5,63.5 C 438.93,63.1065 442.096,63.7732 445,65.5C 452.183,74.7519 454.517,85.0852 452,96.5C 450.101,100.66 447.101,103.66 443,105.5C 438.645,103.739 434.478,101.572 430.5,99C 428.951,97.786 427.785,96.286 427,94.5C 426.333,90.5 426.333,86.5 427,82.5C 430.122,76.3021 432.955,69.9688 435.5,63.5 Z" />
  </g>
  <g fill='blue' id='root_23' class='root'>
    <path d="M 443.5,-0.5 C 444.167,-0.5 444.833,-0.5 445.5,-0.5C 446.645,21.1501 447.478,42.8168 448,64.5C 447.667,64.8333 447.333,65.1667 447,65.5C 443.997,60.7245 440.164,59.7245 435.5,62.5C 433.537,64.2618 432.204,65.9285 431.5,67.5C 432.068,47.6834 434.568,28.0167 439,8.5C 439.663,4.96469 441.163,1.96469 443.5,-0.5 Z" />
  </g>
  <g fill='blue' id='crown_24' class='crown'>
    <path d="M 475.5,75.5 C 477.138,74.8411 478.805,74.1744 480.5,73.5C 482.295,74.2651 484.128,74.9318 486,75.5C 491.847,81.4946 493.847,88.4946 492,96.5C 484.961,104.072 477.628,104.405 470,97.5C 468.404,89.2183 470.237,81.885 475.5,75.5 Z" />
  </g>
  <g fill='blue' id='root_24' class='root'>
    <path d="M 475.5,75.5 C 474.504,75.4142 473.671,75.7476 473,76.5C 472.833,75.3333 472.667,74.1667 472.5,73C 475.439,57.8655 478.106,42.6988 480.5,27.5C 483.278,27.0217 485.278,28.0217 486.5,30.5C 488.962,27.9469 491.295,27.9469 493.5,30.5C 491.667,34.8333 489.833,39.1667 488,43.5C 487.667,53.8333 487.333,64.1667 487,74.5C 483.69,72.3374 480.19,72.0041 476.5,73.5C 475.702,73.9569 475.369,74.6236 475.5,75.5 Z" />
  </g>
   <g fill='blue' id='crown_25' class='crown'>
    <path d="M 518.5,69.5 C 522.426,69.0466 525.592,70.3799 528,73.5C 530.122,78.7424 531.956,84.0757 533.5,89.5C 530.675,97.8576 525.009,101.358 516.5,100C 513.063,98.8951 510.563,96.7284 509,93.5C 506.473,82.9538 509.639,74.9538 518.5,69.5 Z" />
  </g>
  <g fill='blue' id='root_25' class='root'>
    <path d="M 523.5,23.5 C 525.167,23.5 526.833,23.5 528.5,23.5C 527.725,31.8194 527.058,40.1528 526.5,48.5C 526.968,54.8441 527.134,61.1774 527,67.5C 521.646,66.9422 516.646,68.2755 512,71.5C 511.5,71.1667 511,70.8333 510.5,70.5C 513.093,60.2801 515.26,49.9468 517,39.5C 518.49,33.8569 520.657,28.5236 523.5,23.5 Z" />
  </g>
  <g fill='green' id='tooth_26' class='tooth'>
    <path d="M 580.5,25.5 C 583.242,26.5578 583.909,28.3911 582.5,31C 583.674,35.3819 584.341,39.8819 584.5,44.5C 582.489,52.5643 581.156,60.5643 580.5,68.5C 575.553,68.9302 570.553,69.0969 565.5,69C 563.196,69.8952 560.862,70.7285 558.5,71.5C 559,71.8333 559.5,72.1667 560,72.5C 563.084,71.4373 566.251,70.7707 569.5,70.5C 573.954,71.3095 578.287,71.3095 582.5,70.5C 584.763,76.2501 585.763,82.0834 585.5,88C 582.342,95.7756 577.009,97.6089 569.5,93.5C 567.617,94.0243 565.784,94.6909 564,95.5C 560.97,94.2658 558.137,93.4325 555.5,93C 552.335,90.1727 551.169,86.6727 552,82.5C 554.029,77.302 555.862,72.1353 557.5,67C 552.863,55.7102 552.363,44.2102 556,32.5C 557.026,28.4925 559.36,27.1592 563,28.5C 562.44,33.2715 561.94,38.1048 561.5,43C 561.391,45.7003 561.891,48.2003 563,50.5C 563.683,43.1301 565.183,35.9634 567.5,29C 568.784,28.3162 569.951,28.4829 571,29.5C 571.369,33.8629 571.869,38.1962 572.5,42.5C 573.822,42.67 574.989,42.3366 576,41.5C 576.333,37.8333 576.667,34.1667 577,30.5C 577.257,28.0935 578.424,26.4268 580.5,25.5 Z" />
  </g>
  <g fill='green' id='crown_27' class='crown'>
    <path d="M 616.5,69.5 C 625.057,68.7544 629.39,72.5878 629.5,81C 629.17,91.9182 624.004,95.0849 614,90.5C 611.65,91.5042 609.316,92.5042 607,93.5C 600.985,93.1527 598.152,89.9861 598.5,84C 599.051,81.523 599.051,79.1897 598.5,77C 599.293,75.9148 599.96,74.7481 600.5,73.5C 605.824,71.9513 611.157,70.618 616.5,69.5 Z" />
  </g>
  <g fill='green' id='root_27' class='root'>
    <path d="M 614.5,27.5 C 615.833,27.5 617.167,27.5 618.5,27.5C 616.79,32.9815 614.956,38.3148 613,43.5C 615.254,39.9934 617.254,36.3267 619,32.5C 620.444,30.8446 622.278,30.178 624.5,30.5C 623.661,33.8349 623.161,37.1682 623,40.5C 625.36,37.6018 626.86,34.2685 627.5,30.5C 629.006,29.2528 630.506,29.2528 632,30.5C 632.85,39.2977 631.183,47.631 627,55.5C 626.501,59.8206 626.334,64.1539 626.5,68.5C 619.376,68.1076 612.376,68.7743 605.5,70.5C 604.522,70.0233 603.689,69.3567 603,68.5C 600.476,52.9222 604.309,39.2556 614.5,27.5 Z" />
  </g>
  <g fill='green' id='crown_28' class='crown'>
    <path d="M 653.5,69.5 C 657.514,69.3345 661.514,69.5012 665.5,70C 668.631,76.4872 667.964,82.4872 663.5,88C 661.167,88.3333 658.833,88.6667 656.5,89C 653.299,92.5714 649.633,93.2381 645.5,91C 639.416,85.3974 638.916,79.2307 644,72.5C 647.059,71.8732 650.226,70.8732 653.5,69.5 Z" />
  </g>
  <g fill='green' id='root_28' class='root'>
    <path d="M 657.5,33.5 C 659.89,33.6848 660.89,35.0182 660.5,37.5C 659.446,40.8014 658.946,44.1347 659,47.5C 660.796,44.073 662.963,40.9063 665.5,38C 667.134,37.5065 668.801,37.3398 670.5,37.5C 667.639,46.9647 665.473,56.6314 664,66.5C 661.49,68.4354 658.823,68.7687 656,67.5C 652.385,68.112 648.885,69.112 645.5,70.5C 645.452,59.3531 647.952,48.6864 653,38.5C 654.517,36.7605 656.017,35.0938 657.5,33.5 Z" />
  </g>

  <!-- end upper rigth -->















<!-- lower -->


  <!-- start lower rigth -->


  <g fill='red' id='crown_31' class='crown'>
    <path d="M 360.5,193.5 C 359.833,193.5 359.5,193.833 359.5,194.5C 358.833,194.5 358.5,194.833 358.5,195.5C 356.833,195.5 355.167,195.5 353.5,195.5C 353.5,194.833 353.167,194.5 352.5,194.5C 348.534,187.05 347.034,179.05 348,170.5C 352.518,166.836 357.351,166.502 362.5,169.5C 363.664,175.807 363.831,182.141 363,188.5C 362.153,190.193 361.32,191.86 360.5,193.5 Z" />
  </g>
  <g fill='red' id='root_31' class='root'>
    <path d="M 360.5,193.5 C 361.756,193.461 362.756,193.961 363.5,195C 361.42,207.37 360.087,219.87 359.5,232.5C 356.744,233.633 354.911,232.633 354,229.5C 351.914,219.634 350.914,209.634 351,199.5C 348.662,196.86 349.162,195.193 352.5,194.5C 353.167,194.5 353.5,194.833 353.5,195.5C 355.167,198.167 356.833,198.167 358.5,195.5C 359.167,195.5 359.5,195.167 359.5,194.5C 360.167,194.5 360.5,194.167 360.5,193.5 Z M 353.5,195.5 C 355.167,195.5 356.833,195.5 358.5,195.5C 356.833,198.167 355.167,198.167 353.5,195.5 Z" />
  </g>


  <g fill='red' id='crown_32' class='crown'>
    <path d="M 382.5,194.5 C 378.422,186.706 376.922,178.373 378,169.5C 383.186,166.872 388.353,167.038 393.5,170C 394.191,171.067 394.691,172.234 395,173.5C 395.154,178.569 394.487,183.569 393,188.5C 391.465,194.238 387.965,196.238 382.5,194.5 Z" />
  </g>
  <g fill="red" id='root_32' class='root'>
    <path d="M 382.5,194.5 C 382.611,195.117 382.944,195.617 383.5,196C 386.332,196.212 388.998,196.379 391.5,196.5C 390.855,202.255 390.188,208.255 389.5,214.5C 390.782,222.808 391.782,231.141 392.5,239.5C 390.278,239.822 388.444,239.155 387,237.5C 385.059,233.952 383.393,230.286 382,226.5C 380.646,215.873 379.812,205.206 379.5,194.5C 380.5,194.5 381.5,194.5 382.5,194.5 Z" />
  </g>


  <g fill='blue' id='crown_33' class='crown'>
    <path d="M 427.5,199.5 C 425.167,200.833 422.833,200.833 420.5,199.5C 413.852,187.71 411.685,175.376 414,162.5C 418.827,158.558 423.66,158.725 428.5,163C 431.783,165.567 433.783,168.9 434.5,173C 433.26,179.826 432.094,186.659 431,193.5C 429.579,195.405 428.412,197.405 427.5,199.5 Z" />
  </g>
  <g fill="blue" id='root_33' class='root'>
    <path d="M 420.5,199.5 C 422.833,203.5 425.167,203.5 427.5,199.5C 428.5,198.167 429.5,198.167 430.5,199.5C 429.531,211.152 429.365,222.819 430,234.5C 430.82,241.937 432.654,249.104 435.5,256C 435.266,257.732 434.266,258.566 432.5,258.5C 429.559,257.394 427.392,255.394 426,252.5C 423.398,246.361 421.398,240.028 420,233.5C 418.231,221.465 416.398,209.465 414.5,197.5C 414.808,196.692 415.308,196.025 416,195.5C 417.371,197.041 418.871,198.375 420.5,199.5 Z M 420.5,199.5 C 422.833,200.833 425.167,200.833 427.5,199.5C 425.167,203.5 422.833,203.5 420.5,199.5 Z" />
  </g>


  <g fill='blue' id='crown_34' class='crown'>
    <path d="M 460.5,193.5 C 452.104,187.252 449.937,179.252 454,169.5C 456.548,165.64 460.048,164.14 464.5,165C 467,167.167 469.5,169.333 472,171.5C 472.835,178.173 471.668,184.507 468.5,190.5C 466.255,192.623 463.588,193.623 460.5,193.5 Z" />
  </g>
  <g fill='blue' id='root_34' class='root'>
    <path d="M 460.5,193.5 C 462.265,194.461 464.265,194.795 466.5,194.5C 465.35,206.003 465.35,217.503 466.5,229C 467.244,233.934 465.411,235.434 461,233.5C 460.333,232.167 459.667,230.833 459,229.5C 456.464,217.62 455.464,205.62 456,193.5C 457.299,193.034 458.799,193.034 460.5,193.5 Z" />
  </g>


  <g fill='blue' id='crown_35' class='crown'>
    <path d="M 501.5,164.5 C 508.863,163.867 512.863,167.2 513.5,174.5C 513.715,182.433 510.215,187.767 503,190.5C 495.477,185.682 492.81,179.015 495,170.5C 497.063,168.266 499.229,166.266 501.5,164.5 Z" />
  </g>
  <g fill='blue' id='root_35' class='root'>
    <path d="M 495.5,187.5 C 497.911,189.219 500.577,190.552 503.5,191.5C 505.135,190.954 506.801,190.62 508.5,190.5C 507.874,202.843 507.041,215.176 506,227.5C 504.609,229.715 502.943,229.715 501,227.5C 498.139,221.162 496.473,214.496 496,207.5C 495.5,200.842 495.334,194.175 495.5,187.5 Z" />
  </g>


  <g fill='green' id='crown_36' class='crown'>
    <path d="M 560.5,191.5 C 559.209,191.263 558.209,191.596 557.5,192.5C 556.508,192.328 555.842,192.662 555.5,193.5C 552.833,193.5 550.167,193.5 547.5,193.5C 543.876,192.258 540.376,190.591 537,188.5C 535.675,184.572 535.342,180.572 536,176.5C 536.5,174.667 537.667,173.5 539.5,173C 545.517,173.36 551.517,173.193 557.5,172.5C 560.5,173 563.5,173.5 566.5,174C 567.629,178.079 567.796,182.245 567,186.5C 565.728,189.492 563.562,191.159 560.5,191.5 Z" />
  </g>
  <g fill='green' id='root_36' class='root'>
    <path d="M 560.5,191.5 C 563.483,193.292 564.149,195.792 562.5,199C 563.739,203.713 565.573,208.213 568,212.5C 568.524,218.85 568.358,225.184 567.5,231.5C 565.61,231.703 564.11,231.037 563,229.5C 562,225.5 561,221.5 560,217.5C 556.144,212.837 552.978,207.837 550.5,202.5C 546.803,205.399 545.136,209.233 545.5,214C 546.61,220.346 548.11,226.513 550,232.5C 545.736,233.529 542.736,231.862 541,227.5C 539.601,224.637 538.601,221.637 538,218.5C 537.333,210.167 537.333,201.833 538,193.5C 541.112,192.427 544.279,192.427 547.5,193.5C 550.167,196.167 552.833,196.167 555.5,193.5C 556.492,193.672 557.158,193.338 557.5,192.5C 558.791,192.737 559.791,192.404 560.5,191.5 Z M 547.5,193.5 C 550.167,193.5 552.833,193.5 555.5,193.5C 552.833,196.167 550.167,196.167 547.5,193.5 Z" />
  </g>


  <g fill='green' id='crown_37' class='crown'>
    <path d="M 596.5,175.5 C 600.198,175.194 603.698,175.861 607,177.5C 611.968,174.328 616.301,174.995 620,179.5C 620.81,184.257 620.476,188.924 619,193.5C 617.938,194.097 616.772,194.43 615.5,194.5C 609.187,193.793 602.853,193.293 596.5,193C 594.121,189.744 592.121,186.244 590.5,182.5C 591.833,179.507 593.833,177.173 596.5,175.5 Z" />
  </g>
  <g fill="green" id='root_37' class='root'>
    <path d="M 598.5,194.5 C 605.083,194.812 611.583,195.478 618,196.5C 621.929,203.265 623.429,210.432 622.5,218C 623.41,222.137 624.077,226.304 624.5,230.5C 621.348,231.041 618.848,230.041 617,227.5C 615.242,220.861 613.575,214.195 612,207.5C 611.653,205.82 610.653,204.82 609,204.5C 607.139,205.609 606.305,207.275 606.5,209.5C 608.46,215.085 610.127,220.752 611.5,226.5C 611.918,229.271 610.918,231.271 608.5,232.5C 604.763,226.7 601.263,220.7 598,214.5C 597.476,207.628 597.642,200.961 598.5,194.5 Z" />
  </g>

  <g fill='green' id='crown_38' class='crown'>
    <path d="M 646.5,177.5 C 649.518,177.335 652.518,177.502 655.5,178C 656.333,178.833 657.167,179.667 658,180.5C 665.21,176.543 670.044,178.376 672.5,186C 671.733,189.634 670.566,193.134 669,196.5C 661.295,199.46 653.795,198.96 646.5,195C 642.747,188.975 642.747,183.141 646.5,177.5 Z" />
  </g>
  <g fill="green" id='root_38' class='root'>
    <path d="M 648.5,197.5 C 651.832,198.5 655.166,199.5 658.5,200.5C 661.812,199.621 665.145,199.454 668.5,200C 666.84,202.633 666.34,205.466 667,208.5C 668.498,213.66 670.664,218.493 673.5,223C 673.138,224.885 671.971,225.719 670,225.5C 668.175,225.057 666.342,224.723 664.5,224.5C 664.824,227.68 663.49,228.847 660.5,228C 651.011,219.875 647.011,209.708 648.5,197.5 Z" />
  </g>



  <!-- end lower rigth -->


  <!-- start lower left -->





  <g fill='red' id='crown_41' class='crown'>
    <path d="M 322.5,195.5 C 318.124,188.147 316.29,180.147 317,171.5C 321.619,167.968 326.452,167.635 331.5,170.5C 331.833,172 332.167,173.5 332.5,175C 331.917,180.492 331.417,185.992 331,191.5C 329.323,195.051 326.49,196.384 322.5,195.5 Z" />
  </g>
  <g fill="red" id='root_41' class='root'>
    <path d="M 322.5,195.5 C 322.866,196.695 323.699,197.361 325,197.5C 326.763,197.025 328.43,196.358 330,195.5C 330.249,206.926 329.249,218.259 327,229.5C 322.679,235.391 320.179,234.724 319.5,227.5C 320.17,216.852 320.17,206.186 319.5,195.5C 320.5,195.5 321.5,195.5 322.5,195.5 Z" />
  </g>

  <g fill='red' id='crown_42' class='crown'>
    <path d="M 288.5,192.5 C 284.795,185.67 283.295,178.336 284,170.5C 289.347,168.227 294.847,167.561 300.5,168.5C 301.127,176.221 300.294,183.888 298,191.5C 295.172,195.032 292.005,195.366 288.5,192.5 Z" />
  </g>
  <g fill="red" id='root_42' class='root'>
    <path d="M 288.5,195.5 C 291.448,195.223 294.281,195.556 297,196.5C 298.234,208.703 297.234,220.703 294,232.5C 292,236.5 290,236.5 288,232.5C 287.188,220.091 287.355,207.758 288.5,195.5 Z" />
  </g>


  <g fill='blue' id='crown_43' class='crown'>
    <path d="M 258.5,197.5 C 256.5,197.5 254.5,197.5 252.5,197.5C 244.899,188.967 242.399,178.967 245,167.5C 249.294,164.87 253.294,161.87 257,158.5C 262.433,159.765 265.6,163.098 266.5,168.5C 265.95,175.543 265.116,182.543 264,189.5C 262.727,192.597 260.893,195.264 258.5,197.5 Z" />
  </g>
  <g fill="blue" id='root_43' class='root'>
    <path d="M 252.5,197.5 C 254.5,200.167 256.5,200.167 258.5,197.5C 260.044,197.297 261.378,196.63 262.5,195.5C 264.097,215.92 260.93,235.587 253,254.5C 249.747,257.494 247.247,256.994 245.5,253C 249.208,236.341 250.208,219.508 248.5,202.5C 248.833,200.5 249.167,198.5 249.5,196.5C 250.417,197.127 251.417,197.461 252.5,197.5 Z M 252.5,197.5 C 254.5,197.5 256.5,197.5 258.5,197.5C 256.5,200.167 254.5,200.167 252.5,197.5 Z" />
  </g>


  <g fill='blue' id='crown_44' class='crown'>
    <path d="M 218.5,189.5 C 217.508,189.328 216.842,189.662 216.5,190.5C 207.799,189.496 203.466,184.496 203.5,175.5C 203.621,174.106 203.954,172.772 204.5,171.5C 207.354,168.812 210.354,166.312 213.5,164C 220.399,163.773 224.733,166.94 226.5,173.5C 225.307,179.732 222.64,185.065 218.5,189.5 Z" />
  </g>
  <g fill='blue' id='root_44' class='root'>
    <path d="M 216.5,190.5 C 217.492,190.672 218.158,190.338 218.5,189.5C 219.5,189.5 220.5,189.5 221.5,189.5C 220.888,200.837 220.055,212.17 219,223.5C 218.038,226.456 216.372,228.79 214,230.5C 213.228,230.355 212.561,230.022 212,229.5C 210.895,217.779 209.395,206.112 207.5,194.5C 207.833,192.833 208.167,191.167 208.5,189.5C 211.148,191.442 213.815,191.776 216.5,190.5 Z" />
  </g>


  <g fill='blue' id='crown_45' class='crown'>
    <path d="M 171.5,164.5 C 182.9,164.399 186.733,169.732 183,180.5C 181.776,190.422 176.609,193.588 167.5,190C 163.831,184.378 162.664,178.211 164,171.5C 166.396,168.933 168.896,166.6 171.5,164.5 Z" />
  </g>
  <g fill='blue' id='root_45' class='root'>
    <path d="M 178.5,191.5 C 179.147,192.274 179.48,193.274 179.5,194.5C 178.135,205.791 177.302,217.124 177,228.5C 176.035,233.473 173.702,234.473 170,231.5C 168.834,218.519 168.001,205.519 167.5,192.5C 169.591,192.318 171.591,192.652 173.5,193.5C 175.336,192.972 177.003,192.306 178.5,191.5 Z" />
  </g>


  <g fill='green' id='tooth_46' class='tooth'>
    <path d="M 118.5,172.5 C 120.916,174.036 123.583,175.036 126.5,175.5C 130.402,174.028 134.402,173.528 138.5,174C 139.416,174.374 140.25,174.874 141,175.5C 142.122,182.43 141.288,189.096 138.5,195.5C 133.621,197.209 128.621,198.709 123.5,200C 128.456,200.006 133.289,199.172 138,197.5C 139.103,208.401 138.436,219.401 136,230.5C 134.765,235.29 131.932,237.29 127.5,236.5C 127.167,235.5 126.833,234.5 126.5,233.5C 127.604,229.356 128.604,225.189 129.5,221C 129.449,216.659 127.783,213.159 124.5,210.5C 118.29,218.302 115.29,227.302 115.5,237.5C 113.533,237.739 111.699,237.406 110,236.5C 109.042,233.925 108.542,231.259 108.5,228.5C 110.85,218.61 112.683,208.61 114,198.5C 115.399,197.773 116.899,197.273 118.5,197C 111.854,195.341 108.521,191.007 108.5,184C 108.384,181.456 109.217,179.289 111,177.5C 113.824,176.182 116.324,174.515 118.5,172.5 Z" />
  </g>

  <g fill='green' id='crown_47' class='crown'>
    <path d="M 61.5,175.5 C 64.462,176.061 67.2953,177.061 70,178.5C 73.8968,174.986 78.0634,174.653 82.5,177.5C 85.0139,182.801 84.8473,188.134 82,193.5C 74.7033,196.488 67.2033,196.988 59.5,195C 52.2093,187.312 52.876,180.812 61.5,175.5 Z" />
  </g>
  <g fill="green" id='root_47' class='root'>
    <path d="M 59.5,196.5 C 67.0575,197.272 74.5575,197.606 82,197.5C 84.9285,210.253 82.0952,221.419 73.5,231C 72.2161,231.684 71.0495,231.517 70,230.5C 69.5155,223.278 71.0155,216.445 74.5,210C 73.8448,208.513 72.8448,207.347 71.5,206.5C 67.7955,208.9 65.2955,212.233 64,216.5C 62.6722,221.477 61.5056,226.477 60.5,231.5C 59.1804,233.27 57.6804,233.603 56,232.5C 54.5236,227.924 54.1902,223.257 55,218.5C 56.1831,211.101 57.6831,203.768 59.5,196.5 Z" />
  </g>

  <g fill='green' id='crown_48' class='crown'>
    <path d="M 14.5,177.5 C 17.0488,177.387 19.3821,178.054 21.5,179.5C 33.9914,175.158 37.8248,179.158 33,191.5C 27.0865,196.58 20.2532,198.413 12.5,197C 8.60499,192.344 7.43833,187.177 9,181.5C 10.8121,180.023 12.6455,178.69 14.5,177.5 Z" />
  </g>
  <g fill="green" id='root_48' class='root'>
    <path d="M 29.5,195.5 C 29.7235,204.841 27.5568,213.841 23,222.5C 21.2609,224.741 19.0942,226.408 16.5,227.5C 15.5853,226.672 14.9186,225.672 14.5,224.5C 15.3256,223.549 15.4922,222.549 15,221.5C 13.5,223 12,224.5 10.5,226C 8.5273,226.495 6.5273,226.662 4.5,226.5C 6.35918,221.777 8.52585,217.11 11,212.5C 12.5566,208.195 12.8899,203.862 12,199.5C 15.7454,198.703 19.5787,198.203 23.5,198C 25.7226,197.434 27.7226,196.6 29.5,195.5 Z" />
  </g>



  <!-- end lower left -->





</svg>
