<svg xmlns="http://www.w3.org/2000/svg" version="1.1" class='upper_schema' width="680px" height="120px" style="shape-rendering:geometricPrecision;text-rendering:geometricPrecision;image-rendering:optimizeQuality;fill-rule:evenodd;clip-rule:evenodd" xmlns:xlink="http://www.w3.org/1999/xlink">
  <!-- start upper left -->
  <g fill='red' id='crown_11' class='crown'>
    <path d="M 329.5,74.5 C 333.95,83.4345 335.117,92.7678 333,102.5C 303.411,111.029 296.744,102.029 313,75.5C 318.153,70.5058 323.653,70.1724 329.5,74.5 Z" />
  </g>
  <g fill='red' id='root_11' class='root'>
    <path d="M 316.5,24.5 C 320.251,24.0824 322.418,25.749 323,29.5C 327.58,43.4881 330.414,57.8214 331.5,72.5C 328.056,71.4089 324.556,70.4089 321,69.5C 317.38,70.1413 314.38,71.808 312,74.5C 311.878,62.5553 313.044,50.722 315.5,39C 313.93,33.9559 314.264,29.1225 316.5,24.5 Z" />
  </g>
  <g fill='blue' id='crown_12' class='crown'>
    <path d="M 276.5,70.5 C 279.528,70.9649 282.362,71.9649 285,73.5C 287.145,80.1686 288.645,87.0019 289.5,94C 289.423,100.578 286.089,104.078 279.5,104.5C 276.041,104.109 272.707,103.276 269.5,102C 267.73,100.033 266.73,97.6998 266.5,95C 268.457,87.4591 270.624,79.9591 273,72.5C 274.302,71.9152 275.469,71.2485 276.5,70.5 Z" />
  </g>
  <g fill='blue' id='root_12' class='root'>
    <path d="M 272.5,23.5 C 277.197,25.4883 280.03,29.1549 281,34.5C 283.49,46.794 285.656,59.1273 287.5,71.5C 284.367,70.7349 281.2,70.0683 278,69.5C 274.711,71.54 272.545,70.7067 271.5,67C 272.925,53.9638 272.592,40.9638 270.5,28C 270.759,26.2134 271.425,24.7134 272.5,23.5 Z" />
  </g>
  <g fill='blue' id='crown_13' class='crown'>
    <path d="M 232.5,68.5 C 236.494,67.608 240.327,67.2747 244,67.5C 248.542,77.6798 250.208,88.3465 249,99.5C 248.484,102.034 247.317,104.2 245.5,106C 237.636,108.352 231.47,106.185 227,99.5C 226.333,92.5 226.333,85.5 227,78.5C 228.577,75.0108 230.411,71.6774 232.5,68.5 Z" />
  </g>
  <g fill='blue' id='root_13' class='root'>
    <path d="M 245.5,66.5 C 243.539,66.7314 241.539,66.0648 239.5,64.5C 236.651,65.0997 234.318,66.4331 232.5,68.5C 231.417,68.5394 230.417,68.8728 229.5,69.5C 229.167,67.3333 228.833,65.1667 228.5,63C 229.955,50.1978 230.955,37.3645 231.5,24.5C 231.629,16.8763 230.963,9.37634 229.5,2C 230.944,1.21948 232.277,1.38615 233.5,2.5C 237.79,10.4122 240.957,18.7455 243,27.5C 244.686,40.4443 245.52,53.4443 245.5,66.5 Z" />
  </g>
  <g fill='blue' id='crown_14' class='crown'>
    <path d="M 194.5,75.5 C 198.182,75.5907 201.349,76.924 204,79.5C 206.489,83.3114 207.989,87.4781 208.5,92C 207.509,98.1834 203.843,101.683 197.5,102.5C 186.775,98.8421 183.942,91.8421 189,81.5C 190.36,78.9774 192.193,76.9774 194.5,75.5 Z" />
  </g>
   <g fill='blue' id='root_14' class='root'>
    <path d="M 205.5,76.5 C 202.538,75.9391 199.705,74.9391 197,73.5C 194.681,74.8713 192.181,75.5379 189.5,75.5C 191.498,60.8446 193.498,46.178 195.5,31.5C 196.478,31.9767 197.311,32.6433 198,33.5C 203.297,47.4682 205.797,61.8016 205.5,76.5 Z" />
  </g>
   <g fill='blue' id='crown_15' class='crown'>
    <path d="M 153.5,70.5 C 166.036,70.5528 171.203,76.8861 169,89.5C 165.898,96.2978 160.732,99.1312 153.5,98C 148.268,95.3674 146.435,91.2008 148,85.5C 148.774,80.0409 150.608,75.0409 153.5,70.5 Z" />
  </g>
  <g fill='blue' id='root_15' class='root'>
    <path d="M 153.5,70.5 C 152.624,70.6309 151.957,70.2975 151.5,69.5C 152.962,55.3161 152.629,41.1494 150.5,27C 151.099,21.4031 153.599,20.2365 158,23.5C 163.357,38.6695 166.19,54.3362 166.5,70.5C 163.307,69.9888 160.141,69.3222 157,68.5C 155.319,68.6083 154.152,69.2749 153.5,70.5 Z" />
  </g>
  <g fill='green' id='crown_16' class='crown'>
    <path d="M 111.5,68.5 C 116.45,70.4219 121.283,72.4219 126,74.5C 128.129,79.662 128.796,84.9953 128,90.5C 121.788,97.1003 115.455,97.1003 109,90.5C 102.748,96.0326 97.0815,95.3659 92,88.5C 90.4312,81.1594 92.5979,75.3261 98.5,71C 102.167,70.6667 105.833,70.3333 109.5,70C 110.416,69.7216 111.082,69.2216 111.5,68.5 Z" />
  </g>
  <g fill='green' id='root_16' class='root'>
    <path d="M 109.5,25.5 C 111.903,25.393 113.736,26.393 115,28.5C 118.203,46.8968 120.036,46.8968 120.5,28.5C 121.822,28.33 122.989,28.6634 124,29.5C 124.667,32.1667 125.333,34.8333 126,37.5C 125.736,48.2474 125.069,58.9141 124,69.5C 122.274,70.5762 120.441,70.7429 118.5,70C 116.63,68.6338 114.63,67.4672 112.5,66.5C 110.5,67.5 108.5,68.5 106.5,69.5C 104.253,68.6258 101.92,68.2924 99.5,68.5C 99.6658,63.8215 99.4992,59.1548 99,54.5C 97.3127,49.6085 96.1461,44.6085 95.5,39.5C 95.542,36.7414 96.042,34.0747 97,31.5C 98.1096,29.9632 99.6096,29.2965 101.5,29.5C 101.335,33.1817 101.501,36.8484 102,40.5C 102.782,43.0758 104.282,45.0758 106.5,46.5C 107.086,46.2907 107.586,45.9574 108,45.5C 108.5,43 109,40.5 109.5,38C 108.265,33.7769 108.265,29.6102 109.5,25.5 Z" />
  </g>
  <g fill='green' id='crown_17' class='crown'>
    <path d="M 60.5,68.5 C 65.2029,68.1201 69.5363,69.1201 73.5,71.5C 77.6074,77.0628 78.2741,82.8961 75.5,89C 71.7685,91.6463 67.7685,92.1463 63.5,90.5C 61.0838,90.8747 58.7504,91.5413 56.5,92.5C 46.0822,88.0895 43.5822,80.7561 49,70.5C 52.9352,69.8622 56.7685,69.1955 60.5,68.5 Z" />
  </g>
  <g fill='green' id='root_17' class='root'>
    <path d="M 66.5,29.5 C 68.1439,29.2865 69.6439,29.6198 71,30.5C 75.6718,37.5198 77.3385,45.1865 76,53.5C 74.5251,58.0633 73.6917,62.7299 73.5,67.5C 66.6104,66.7304 59.7771,66.3971 53,66.5C 52.5022,64.4731 52.6689,62.4731 53.5,60.5C 49.8335,51.6994 49.0001,42.6994 51,33.5C 51.7096,32.0267 52.8762,31.3601 54.5,31.5C 54.2338,35.5705 54.5672,39.5705 55.5,43.5C 55.8333,43.8333 56.1667,44.1667 56.5,44.5C 58.3931,29.1144 61.2264,28.7811 65,43.5C 67.8257,47.5013 69.3257,46.8346 69.5,41.5C 68.4752,37.4683 67.4752,33.4683 66.5,29.5 Z" />
  </g>
  <g fill='green' id='tooth_18' class='tooth'>
    <path d="M 29.5,71.5 C 26.8377,72.6393 24.171,72.8059 21.5,72C 25.4459,72.8785 29.2792,74.0452 33,75.5C 38.1867,88.1466 34.3534,92.1466 21.5,87.5C 16.8197,91.7872 12.6531,91.4539 9,86.5C 8.26166,82.5983 8.92833,78.9316 11,75.5C 14.2641,74.8201 17.4308,73.6535 20.5,72C 18.6199,72.5098 16.7866,72.3431 15,71.5C 15.2779,67.8606 15.2779,64.1939 15,60.5C 13.2571,56.0162 11.2571,51.6829 9,47.5C 8.33333,44.5 8.33333,41.5 9,38.5C 9.71752,37.5494 10.5509,37.3828 11.5,38C 13.2792,41.0562 14.9458,44.2229 16.5,47.5C 17.325,48.3857 18.325,48.719 19.5,48.5C 19.219,43.4351 19.5524,38.4351 20.5,33.5C 23.2479,32.3561 25.0813,33.3561 26,36.5C 29.1439,47.9396 30.3106,59.6063 29.5,71.5 Z" />
  </g>

  <!-- end upper left -->


  <!-- start upper rigth -->



  <g fill='red' id='crown_21' class='crown'>
    <path d="M 358.5,72.5 C 363.589,71.4285 367.422,73.0952 370,77.5C 373.894,84.1805 376.394,91.3472 377.5,99C 377.385,100.895 376.718,102.562 375.5,104C 366.589,106.109 357.756,105.942 349,103.5C 347.484,94.0257 348.817,85.0257 353,76.5C 354.812,75.0229 356.645,73.6896 358.5,72.5 Z" />
  </g>
  <g fill='red' id='root_21' class='root'>
    <path d="M 363.5,25.5 C 364.822,25.33 365.989,25.6634 367,26.5C 366.916,42.1038 368.416,57.6038 371.5,73C 371.167,73.5 370.833,74 370.5,74.5C 367.987,72.4935 365.154,71.1602 362,70.5C 358.444,71.4089 354.944,72.4089 351.5,73.5C 351.463,59.4602 353.629,45.7936 358,32.5C 359.666,30.0043 361.5,27.671 363.5,25.5 Z" />
  </g>
  <g fill='blue' id='crown_22' class='crown'>
    <path d="M 400.5,70.5 C 403.854,71.261 406.687,72.9277 409,75.5C 410.109,82.5437 411.942,89.377 414.5,96C 414.833,98.6667 413.833,100.667 411.5,102C 405.415,102.861 399.415,102.527 393.5,101C 392.874,100.25 392.374,99.4162 392,98.5C 391.23,89.7092 392.73,81.3759 396.5,73.5C 397.901,72.4793 399.235,71.4793 400.5,70.5 Z" />
  </g>
  <g fill='blue' id='root_22' class='root'>
    <path d="M 406.5,23.5 C 409.261,22.9147 410.927,23.9147 411.5,26.5C 410.946,28.6096 410.112,30.6096 409,32.5C 408.5,45.1623 408.333,57.8289 408.5,70.5C 406.152,70.3305 403.818,69.9971 401.5,69.5C 399.407,69.4858 397.574,70.1524 396,71.5C 396.356,58.692 398.022,46.0253 401,33.5C 402.07,29.6891 403.903,26.3557 406.5,23.5 Z" />
  </g>
  <g fill='blue' id='crown_23' class='crown'>
    <path d="M 435.5,63.5 C 438.93,63.1065 442.096,63.7732 445,65.5C 452.183,74.7519 454.517,85.0852 452,96.5C 450.101,100.66 447.101,103.66 443,105.5C 438.645,103.739 434.478,101.572 430.5,99C 428.951,97.786 427.785,96.286 427,94.5C 426.333,90.5 426.333,86.5 427,82.5C 430.122,76.3021 432.955,69.9688 435.5,63.5 Z" />
  </g>
  <g fill='blue' id='root_23' class='root'>
    <path d="M 443.5,-0.5 C 444.167,-0.5 444.833,-0.5 445.5,-0.5C 446.645,21.1501 447.478,42.8168 448,64.5C 447.667,64.8333 447.333,65.1667 447,65.5C 443.997,60.7245 440.164,59.7245 435.5,62.5C 433.537,64.2618 432.204,65.9285 431.5,67.5C 432.068,47.6834 434.568,28.0167 439,8.5C 439.663,4.96469 441.163,1.96469 443.5,-0.5 Z" />
  </g>
  <g fill='blue' id='crown_24' class='crown'>
    <path d="M 475.5,75.5 C 477.138,74.8411 478.805,74.1744 480.5,73.5C 482.295,74.2651 484.128,74.9318 486,75.5C 491.847,81.4946 493.847,88.4946 492,96.5C 484.961,104.072 477.628,104.405 470,97.5C 468.404,89.2183 470.237,81.885 475.5,75.5 Z" />
  </g>
  <g fill='blue' id='root_24' class='root'>
    <path d="M 475.5,75.5 C 474.504,75.4142 473.671,75.7476 473,76.5C 472.833,75.3333 472.667,74.1667 472.5,73C 475.439,57.8655 478.106,42.6988 480.5,27.5C 483.278,27.0217 485.278,28.0217 486.5,30.5C 488.962,27.9469 491.295,27.9469 493.5,30.5C 491.667,34.8333 489.833,39.1667 488,43.5C 487.667,53.8333 487.333,64.1667 487,74.5C 483.69,72.3374 480.19,72.0041 476.5,73.5C 475.702,73.9569 475.369,74.6236 475.5,75.5 Z" />
  </g>
   <g fill='blue' id='crown_25' class='crown'>
    <path d="M 518.5,69.5 C 522.426,69.0466 525.592,70.3799 528,73.5C 530.122,78.7424 531.956,84.0757 533.5,89.5C 530.675,97.8576 525.009,101.358 516.5,100C 513.063,98.8951 510.563,96.7284 509,93.5C 506.473,82.9538 509.639,74.9538 518.5,69.5 Z" />
  </g>
  <g fill='blue' id='root_25' class='root'>
    <path d="M 523.5,23.5 C 525.167,23.5 526.833,23.5 528.5,23.5C 527.725,31.8194 527.058,40.1528 526.5,48.5C 526.968,54.8441 527.134,61.1774 527,67.5C 521.646,66.9422 516.646,68.2755 512,71.5C 511.5,71.1667 511,70.8333 510.5,70.5C 513.093,60.2801 515.26,49.9468 517,39.5C 518.49,33.8569 520.657,28.5236 523.5,23.5 Z" />
  </g>
  <g fill='green' id='tooth_26' class='tooth'>
    <path d="M 580.5,25.5 C 583.242,26.5578 583.909,28.3911 582.5,31C 583.674,35.3819 584.341,39.8819 584.5,44.5C 582.489,52.5643 581.156,60.5643 580.5,68.5C 575.553,68.9302 570.553,69.0969 565.5,69C 563.196,69.8952 560.862,70.7285 558.5,71.5C 559,71.8333 559.5,72.1667 560,72.5C 563.084,71.4373 566.251,70.7707 569.5,70.5C 573.954,71.3095 578.287,71.3095 582.5,70.5C 584.763,76.2501 585.763,82.0834 585.5,88C 582.342,95.7756 577.009,97.6089 569.5,93.5C 567.617,94.0243 565.784,94.6909 564,95.5C 560.97,94.2658 558.137,93.4325 555.5,93C 552.335,90.1727 551.169,86.6727 552,82.5C 554.029,77.302 555.862,72.1353 557.5,67C 552.863,55.7102 552.363,44.2102 556,32.5C 557.026,28.4925 559.36,27.1592 563,28.5C 562.44,33.2715 561.94,38.1048 561.5,43C 561.391,45.7003 561.891,48.2003 563,50.5C 563.683,43.1301 565.183,35.9634 567.5,29C 568.784,28.3162 569.951,28.4829 571,29.5C 571.369,33.8629 571.869,38.1962 572.5,42.5C 573.822,42.67 574.989,42.3366 576,41.5C 576.333,37.8333 576.667,34.1667 577,30.5C 577.257,28.0935 578.424,26.4268 580.5,25.5 Z" />
  </g>
  <g fill='green' id='crown_27' class='crown'>
    <path d="M 616.5,69.5 C 625.057,68.7544 629.39,72.5878 629.5,81C 629.17,91.9182 624.004,95.0849 614,90.5C 611.65,91.5042 609.316,92.5042 607,93.5C 600.985,93.1527 598.152,89.9861 598.5,84C 599.051,81.523 599.051,79.1897 598.5,77C 599.293,75.9148 599.96,74.7481 600.5,73.5C 605.824,71.9513 611.157,70.618 616.5,69.5 Z" />
  </g>
  <g fill='green' id='root_27' class='root'>
    <path d="M 614.5,27.5 C 615.833,27.5 617.167,27.5 618.5,27.5C 616.79,32.9815 614.956,38.3148 613,43.5C 615.254,39.9934 617.254,36.3267 619,32.5C 620.444,30.8446 622.278,30.178 624.5,30.5C 623.661,33.8349 623.161,37.1682 623,40.5C 625.36,37.6018 626.86,34.2685 627.5,30.5C 629.006,29.2528 630.506,29.2528 632,30.5C 632.85,39.2977 631.183,47.631 627,55.5C 626.501,59.8206 626.334,64.1539 626.5,68.5C 619.376,68.1076 612.376,68.7743 605.5,70.5C 604.522,70.0233 603.689,69.3567 603,68.5C 600.476,52.9222 604.309,39.2556 614.5,27.5 Z" />
  </g>
  <g fill='green' id='crown_28' class='crown'>
    <path d="M 653.5,69.5 C 657.514,69.3345 661.514,69.5012 665.5,70C 668.631,76.4872 667.964,82.4872 663.5,88C 661.167,88.3333 658.833,88.6667 656.5,89C 653.299,92.5714 649.633,93.2381 645.5,91C 639.416,85.3974 638.916,79.2307 644,72.5C 647.059,71.8732 650.226,70.8732 653.5,69.5 Z" />
  </g>
  <g fill='green' id='root_28' class='root'>
    <path d="M 657.5,33.5 C 659.89,33.6848 660.89,35.0182 660.5,37.5C 659.446,40.8014 658.946,44.1347 659,47.5C 660.796,44.073 662.963,40.9063 665.5,38C 667.134,37.5065 668.801,37.3398 670.5,37.5C 667.639,46.9647 665.473,56.6314 664,66.5C 661.49,68.4354 658.823,68.7687 656,67.5C 652.385,68.112 648.885,69.112 645.5,70.5C 645.452,59.3531 647.952,48.6864 653,38.5C 654.517,36.7605 656.017,35.0938 657.5,33.5 Z" />
  </g>

  <!-- end upper rigth -->















<!-- lower -->






</svg>
