<svg xmlns="http://www.w3.org/2000/svg" xmlns:xlink="http://www.w3.org/1999/xlink" width="500" zoomAndPan="magnify" viewBox="0 0 375 374.999991" height="500" preserveAspectRatio="xMidYMid meet" version="1.0"><defs><clipPath id="793a33b431"><path d="M 6.816406 173 L 368.316406 173 L 368.316406 375 L 6.816406 375 Z M 6.816406 173 " clip-rule="nonzero"/></clipPath></defs><g clip-path="url(#793a33b431)"><path fill="#004aad" d="M 292.324219 205.839844 C 291.824219 212.058594 291.597656 218.296875 291.691406 224.546875 C 291.9375 239.953125 294.738281 254.863281 293.546875 270.375 C 291.191406 301.253906 279.679688 331.460938 260.433594 355.761719 C 255.167969 362.414062 249.148438 368.789062 241.453125 372.335938 C 236.355469 374.691406 229.933594 375.550781 225.414062 372.210938 C 220.261719 368.410156 219.738281 361.039062 219.636719 354.632812 C 219.351562 336.105469 218.707031 317.355469 214.820312 299.320312 C 214.820312 299.320312 214.820312 299.320312 214.820312 299.3125 C 213.855469 294.816406 212.679688 290.367188 211.265625 285.976562 C 210.605469 283.9375 209.894531 281.914062 209.105469 279.910156 C 207.039062 274.65625 204.476562 269.601562 201.121094 265.105469 C 188.84375 246.375 165.742188 224.996094 122.539062 214.96875 C 123.285156 215.238281 160.179688 228.679688 176.734375 250.683594 C 160.09375 251.363281 148.179688 273.96875 143.878906 288.398438 C 138.121094 307.6875 137.324219 327.980469 136.351562 347.949219 C 135.957031 356.050781 138.125 369.152344 128.953125 373.21875 C 125.226562 374.875 120.871094 374.585938 117.007812 373.289062 C 103.105469 368.613281 94.558594 355.046875 86.972656 343.363281 C 72.605469 321.246094 63.699219 295.355469 62.164062 268.980469 C 61.660156 260.339844 61.953125 251.65625 63.046875 243.070312 C 64.375 232.617188 64.625 222.277344 64.117188 212.105469 C 36.484375 222.640625 16.167969 236.65625 6.859375 252.558594 C 16.066406 232.132812 36.042969 214.097656 63.21875 200.472656 C 96.203125 183.925781 139.785156 173.859375 187.566406 173.859375 C 227.035156 173.859375 263.644531 180.726562 293.777344 192.4375 C 330.175781 206.59375 357.128906 227.816406 368.277344 252.558594 C 356.980469 233.253906 329.457031 216.730469 292.324219 205.839844 " fill-opacity="1" fill-rule="nonzero"/></g><path fill="#5271ff" d="M 311.921875 95.585938 C 307.21875 117.898438 300.453125 139.722656 296.226562 162.148438 C 295.292969 167.121094 294.460938 172.121094 293.777344 177.136719 C 263.644531 165.421875 227.035156 158.5625 187.566406 158.5625 C 139.785156 158.5625 96.203125 168.625 63.21875 185.167969 C 57.179688 126.742188 29.730469 75.335938 45.230469 45.421875 C 49.636719 36.929688 55.515625 31.101562 62.328125 27.3125 C 62.53125 27.199219 62.730469 27.085938 62.9375 26.976562 C 63.136719 26.863281 63.34375 26.765625 63.550781 26.65625 C 73.683594 21.4375 85.746094 20.484375 98.023438 21.761719 C 138.070312 25.929688 172.117188 48.058594 203.019531 72.320312 C 217.886719 83.988281 232.339844 97.285156 249.964844 104.722656 C 256.382812 107.429688 265.964844 110.644531 272.058594 105.570312 C 269.449219 107.402344 254.804688 112.679688 201.273438 61.289062 C 193.734375 54.046875 185.476562 47.695312 176.796875 42.109375 C 181.136719 42.257812 185.453125 41.84375 189.667969 40.621094 C 224.613281 30.480469 287.164062 -0.191406 310.800781 45.421875 C 318.699219 60.65625 315.292969 79.601562 311.921875 95.585938 " fill-opacity="1" fill-rule="nonzero"/><path fill="#c3b000" d="M 214.820312 299.3125 C 213.855469 294.816406 212.679688 290.367188 211.265625 285.976562 C 210.605469 283.9375 209.894531 281.914062 209.105469 279.910156 C 213.910156 291.054688 214.789062 299.0625 214.820312 299.3125 " fill-opacity="1" fill-rule="nonzero"/></svg>