<svg xmlns="http://www.w3.org/2000/svg" enable-background="new 0 0 80 80" viewBox="0 0 80 80" id="clipboard"><path d="M51,12h-3.0615234c-0.2177734-1.7583008-1.0087891-3.3842773-2.28125-4.6572266C44.1464844,5.8320312,42.1376953,5,40,5c-4.0722656,0-7.4438477,3.059082-7.9379883,7H29c-1.6542969,0-3,1.3457031-3,3v1h-8c-0.5522461,0-1,0.4477539-1,1v57c0,0.5522461,0.4477539,1,1,1h44c0.5522461,0,1-0.4477539,1-1V17c0-0.5522461-0.4477539-1-1-1h-8v-1C54,13.3457031,52.6542969,12,51,12z M28,15c0-0.5512695,0.4487305-1,1-1h4c0.5522461,0,1-0.4477539,1-1c0-3.3085938,2.6914062-6,6-6c1.6030273,0,3.1103516,0.6240234,4.2431641,1.7568359C45.3759766,9.8901367,46,11.3969727,46,13c0,0.5522461,0.4477539,1,1,1h4c0.5512695,0,1,0.4487305,1,1v4H28V15z M61,18v55H19V18h7v2c0,0.5522461,0.4477539,1,1,1h26c0.5522461,0,1-0.4477539,1-1v-2H61z"></path><path d="M40 15c1.6542969 0 3-1.3457031 3-3s-1.3457031-3-3-3-3 1.3457031-3 3S38.3457031 15 40 15zM40 11c.5512695 0 1 .4487305 1 1s-.4487305 1-1 1-1-.4487305-1-1S39.4487305 11 40 11zM24 29c0 .5522461.4477539 1 1 1h30c.5522461 0 1-.4477539 1-1s-.4477539-1-1-1H25C24.4477539 28 24 28.4477539 24 29zM55 36H25c-.5522461 0-1 .4477539-1 1s.4477539 1 1 1h30c.5522461 0 1-.4477539 1-1S55.5522461 36 55 36zM55 44H25c-.5522461 0-1 .4477539-1 1s.4477539 1 1 1h30c.5522461 0 1-.4477539 1-1S55.5522461 44 55 44zM55 52H25c-.5522461 0-1 .4477539-1 1s.4477539 1 1 1h30c.5522461 0 1-.4477539 1-1S55.5522461 52 55 52zM48 57c-3.8598633 0-7 3.1401367-7 7s3.1401367 7 7 7 7-3.1401367 7-7S51.8598633 57 48 57zM48 69c-2.7568359 0-5-2.2431641-5-5s2.2431641-5 5-5 5 2.2431641 5 5S50.7568359 69 48 69z"></path><path d="M49.8764648,61.5830078l-2.7128906,2.7128906l-1.0400391-1.0395508c-0.390625-0.390625-1.0234375-0.390625-1.4140625,0s-0.390625,1.0239258,0,1.4140625l1.7470703,1.746582c0.1953125,0.1953125,0.4511719,0.2929688,0.7070312,0.2929688s0.5117188-0.0976562,0.7070312-0.2929688l3.4199219-3.4199219c0.390625-0.390625,0.390625-1.0234375,0-1.4140625S50.2670898,61.1923828,49.8764648,61.5830078z"></path></svg>
