<svg xmlns="http://www.w3.org/2000/svg" width="32" height="32" id="calender"><path style="text-indent:0;text-align:start;line-height:normal;text-transform:none;block-progression:tb;marker:none;-inkscape-font-specification:Sans" d="M16 0C7.17 0 0 7.17 0 16s7.17 16 16 16 16-7.17 16-16S24.83 0 16 0zm0 .969C24.307.969 31.031 7.693 31.031 16S24.307 31.031 16 31.031.969 24.307.969 16 7.693.969 16 .969zM9.5 9a.5.5 0 0 0-.5.5v12a.5.5 0 0 0 .5.5h5.719A4.516 4.516 0 0 1 15 21h-5v-9h11v3c.344.04.684.105 1 .219V9.5a.5.5 0 0 0-.5-.5h-12zm.5 1h11v1H10v-1zm1 3v1h1v-1h-1zm2 0v1h1v-1h-1zm2 0v1h1v-1h-1zm2 0v1h1v-1h-1zm2 0v1h1v-1h-1zm-8 2v1h1v-1h-1zm2 0v1h1v-1h-1zm2 0v1h1v-1h-1zm2 0v1h.531c.161-.107.297-.222.469-.313V15h-1zm3.5 1c-2.48 0-4.5 2.02-4.5 4.5s2.02 4.5 4.5 4.5 4.5-2.02 4.5-4.5-2.02-4.5-4.5-4.5zm0 .813a3.685 3.685 0 0 1 3.688 3.687 3.685 3.685 0 0 1-3.688 3.688 3.685 3.685 0 0 1-3.688-3.688 3.685 3.685 0 0 1 3.688-3.688zM11 17v1h1v-1h-1zm2 0v1h1v-1h-1zm2 0v1h.688c.09-.172.205-.308.312-.469V17h-1zm5.406 1a.5.5 0 0 0-.406.5v2a.5.5 0 0 0 .5.5h1.781a.5.5 0 1 0 0-1H21v-1.5a.5.5 0 0 0-.5-.5.5.5 0 0 0-.094 0zM11 19v1h1v-1h-1zm2 0v1h1v-1h-1z" color="#000" font-family="Sans" font-weight="400" overflow="visible"></path></svg>