<svg class="imgBtn" xmlns="http://www.w3.org/2000/svg" data-name="Layer 1" viewBox="0 0 128 128" id="dollar-coins"><path d="M115.14,72.57V54.36s0,0,0-.07c0-8.36-12.89-14.91-29.34-14.91C74,39.38,64,42.77,59.36,47.78V21.63C59.36,12.87,46.77,6,30.68,6S2,12.87,2,21.63V39.22s0,0,0,0,0,.06,0,.1V55.43s0,.07,0,.1V70.71s0,0,0,0,0,.07,0,.1V86s0,0,0,0,0,0,0,.08v19.51s0,0,0,0c0,8.76,12.6,15.62,28.68,15.62,13,0,23.69-4.48,27.33-10.81,3.86,5.93,14.69,10.1,27.81,10.1,1.29,0,2.45,0,3.56-.12a27.53,27.53,0,0,0,25.76-47.89Zm-2.88-1.94a27.29,27.29,0,0,0-11.14-3.58c4.83-1.47,8.69-3.63,11.14-6.24Zm-41,28.46c-7.29-2.22-11.9-6-11.93-9.94v-10c2.69,2.86,7.16,5.21,13,6.69a27.36,27.36,0,0,0-1.41,8.62A28.55,28.55,0,0,0,71.29,99.09Zm2.07-16c-8.4-2.09-14-6.24-14-10.51V60.8c4.69,5,14.63,8.4,26.45,8.4.58,0,1.15,0,1.72,0A27.31,27.31,0,0,0,73.36,83.13ZM85.81,42.26c14.32,0,26.42,5.49,26.45,12v.09c-.08,6.49-12.15,12-26.45,12s-26.45-5.5-26.45-12S71.48,42.26,85.81,42.26ZM30.68,8.89c14,0,25.8,5.83,25.8,12.74S44.67,34.37,30.68,34.37,4.89,28.53,4.89,21.63,16.7,8.89,30.68,8.89Zm0,28.36c11.51,0,21.2-3.52,25.8-8.72V39.25h0c0,3.07-2.33,5.46-4.28,6.93C47.35,49.82,39.3,52,30.68,52S14,49.82,9.16,46.19c-1.93-1.45-4.23-3.82-4.27-6.86V28.53C9.49,33.73,19.18,37.25,30.68,37.25ZM7.44,48.5c5.33,4,14,6.37,23.24,6.37s17.91-2.38,23.25-6.37a18.12,18.12,0,0,0,2.55-2.34v9.26h0c0,2.87-2,5.14-3.77,6.53-4.79,3.89-13,6.22-22,6.22S13.44,65.85,8.65,62C7,60.58,4.93,58.35,4.89,55.51V46.17A17,17,0,0,0,7.44,48.5ZM6.83,64.2c5.29,4.29,14.2,6.86,23.85,6.86s18.56-2.57,23.84-6.86a16.68,16.68,0,0,0,2-1.86v8.4h0c0,2.85-2,5.13-3.77,6.53-4.8,3.88-13,6.2-22,6.2s-17.23-2.32-22-6.2C7,75.89,4.93,73.65,4.89,70.83V62.35A17.2,17.2,0,0,0,6.83,64.2Zm0,15.32c5.29,4.28,14.2,6.84,23.84,6.84s18.55-2.56,23.85-6.85a16.53,16.53,0,0,0,1.95-1.86V86h0c0,6.91-11.82,12.75-25.8,12.75S5,93,4.89,86.11V77.65A15.84,15.84,0,0,0,6.84,79.52ZM30.68,118.4c-14,0-25.77-5.82-25.79-12.71V93c4.61,5.2,14.29,8.72,25.79,8.72s21.2-3.52,25.8-8.73v12.71h0C56.48,112.57,44.66,118.4,30.68,118.4Zm28.68-12.72h0v-10c2.66,2.82,7,5.16,12.68,6.64a27.49,27.49,0,0,0,11.53,15.35C70.24,117.1,59.37,111.85,59.36,105.68Zm39.09,13.43a24.66,24.66,0,1,1,14.29-44.76.52.52,0,0,0,.11.1,24.64,24.64,0,0,1-14.4,44.66Z"></path><path d="M104.84,86.63a1.44,1.44,0,0,0,2.88,0,9.29,9.29,0,0,0-7.83-9.16V74.79a1.44,1.44,0,1,0-2.88,0v2.68a9.27,9.27,0,0,0,0,18.31v12.73a6.4,6.4,0,0,1-5-6.22,1.45,1.45,0,0,0-2.89,0A9.29,9.29,0,0,0,97,111.45v2.68a1.44,1.44,0,1,0,2.88,0v-2.68a9.27,9.27,0,0,0,0-18.31V80.41A6.4,6.4,0,0,1,104.84,86.63Zm-12.78,0a6.4,6.4,0,0,1,5-6.22V92.84A6.4,6.4,0,0,1,92.06,86.63Zm12.78,15.66a6.4,6.4,0,0,1-5,6.22V96.08A6.4,6.4,0,0,1,104.84,102.29Z"></path></svg>
